<svg xmlns="http://www.w3.org/2000/svg" width="1600" height="900" viewBox="0 0 1600 900" role="img" aria-label="회의 결정사항 누락 방지 — 2시간 검증 워크숍 5단계 흐름"><rect width="1600" height="900" fill="#F7F9FC"/><rect x="54" y="46" width="1492" height="808" rx="32" fill="#FFFFFF" stroke="#C9D7EC" stroke-width="3"/><rect x="54" y="46" width="1492" height="74" rx="32" fill="#0B1F44"/><circle cx="98" cy="83" r="9" fill="#FF6B57"/><circle cx="128" cy="83" r="9" fill="#FBBF24"/><circle cx="158" cy="83" r="9" fill="#22C55E"/><text x="800" y="93" font-family="Arial, 'Noto Sans KR', sans-serif" font-size="23" font-weight="650" fill="#D8E5FF" text-anchor="middle"><tspan x="800" dy="0">교육용 가상 화면 · 2026-08-08 기준</tspan></text><text x="1496" y="92" font-family="Arial, 'Noto Sans KR', sans-serif" font-size="20" font-weight="650" fill="#D8E5FF" text-anchor="end"><tspan x="1496" dy="0">경영지원 · 5단계 수업 흐름</tspan></text><text x="98" y="178" font-family="Arial, 'Noto Sans KR', sans-serif" font-size="25" font-weight="750" fill="#155EEF" text-anchor="start"><tspan x="98" dy="0">경영지원</tspan></text><text x="98" y="233" font-family="Arial, 'Noto Sans KR', sans-serif" font-size="40" font-weight="800" fill="#0B1F44" text-anchor="start"><tspan x="98" dy="0">회의 결정사항 누락 방지 — 2시간 검증 워크숍</tspan></text><text x="1497" y="246" font-family="Arial, 'Noto Sans KR', sans-serif" font-size="20" font-weight="550" fill="#52627A" text-anchor="end"><tspan x="1497" dy="0">공통 이론은 같아도 입력·판정·오류·결과물은 직무별로 분리</tspan></text><rect x="66" y="322" width="278" height="342" rx="26" fill="#EAF2FF" stroke="#155EEF" stroke-width="2"/><rect x="66" y="322" width="278" height="78" rx="26" fill="#155EEF"/><text x="205" y="373" font-family="Arial, 'Noto Sans KR', sans-serif" font-size="27" font-weight="750" fill="#FFFFFF" text-anchor="middle"><tspan x="205" dy="0">1 현업 문제</tspan></text><text x="205" y="472" font-family="Arial, 'Noto Sans KR', sans-serif" font-size="27" font-weight="750" fill="#172B4D" text-anchor="middle"><tspan x="205" dy="0">누락된 후속조치</tspan></text><rect x="90" y="562" width="230" height="70" rx="16" fill="#FFFFFF"/><text x="205" y="605" font-family="Arial, 'Noto Sans KR', sans-serif" font-size="21" font-weight="650" fill="#0B3B8F" text-anchor="middle"><tspan x="205" dy="0">대상·문제 문장</tspan></text><path d="M348 492 H366" stroke="#8FA6C7" stroke-width="7" stroke-linecap="round"/><rect x="370" y="322" width="278" height="342" rx="26" fill="#EAF2FF" stroke="#155EEF" stroke-width="2"/><rect x="370" y="322" width="278" height="78" rx="26" fill="#155EEF"/><text x="509" y="373" font-family="Arial, 'Noto Sans KR', sans-serif" font-size="27" font-weight="750" fill="#FFFFFF" text-anchor="middle"><tspan x="509" dy="0">2 목표·결과</tspan></text><text x="509" y="472" font-family="Arial, 'Noto Sans KR', sans-serif" font-size="27" font-weight="750" fill="#172B4D" text-anchor="middle"><tspan x="509" dy="0">근거로 오류 수정</tspan></text><rect x="394" y="562" width="230" height="70" rx="16" fill="#FFFFFF"/><text x="509" y="605" font-family="Arial, 'Noto Sans KR', sans-serif" font-size="21" font-weight="650" fill="#0B3B8F" text-anchor="middle"><tspan x="509" dy="0">검증표 1부</tspan></text><path d="M652 492 H670" stroke="#8FA6C7" stroke-width="7" stroke-linecap="round"/><rect x="674" y="322" width="278" height="342" rx="26" fill="#EAF2FF" stroke="#155EEF" stroke-width="2"/><rect x="674" y="322" width="278" height="78" rx="26" fill="#155EEF"/><text x="813" y="373" font-family="Arial, 'Noto Sans KR', sans-serif" font-size="27" font-weight="750" fill="#FFFFFF" text-anchor="middle"><tspan x="813" dy="0">3 설명·시연</tspan></text><text x="813" y="472" font-family="Arial, 'Noto Sans KR', sans-serif" font-size="27" font-weight="750" fill="#172B4D" text-anchor="middle"><tspan x="813" dy="0">한 행 소리 내어 대조</tspan></text><rect x="698" y="562" width="230" height="70" rx="16" fill="#FFFFFF"/><text x="813" y="605" font-family="Arial, 'Noto Sans KR', sans-serif" font-size="21" font-weight="650" fill="#0B3B8F" text-anchor="middle"><tspan x="813" dy="0">시연 행</tspan></text><path d="M956 492 H974" stroke="#8FA6C7" stroke-width="7" stroke-linecap="round"/><rect x="978" y="322" width="278" height="342" rx="26" fill="#EAF2FF" stroke="#155EEF" stroke-width="2"/><rect x="978" y="322" width="278" height="78" rx="26" fill="#155EEF"/><text x="1117" y="373" font-family="Arial, 'Noto Sans KR', sans-serif" font-size="27" font-weight="750" fill="#FFFFFF" text-anchor="middle"><tspan x="1117" dy="0">4 직접 실습</tspan></text><text x="1117" y="472" font-family="Arial, 'Noto Sans KR', sans-serif" font-size="27" font-weight="750" fill="#172B4D" text-anchor="middle"><tspan x="1117" dy="0">오류 4건 검증</tspan></text><rect x="1002" y="562" width="230" height="70" rx="16" fill="#FFFFFF"/><text x="1117" y="605" font-family="Arial, 'Noto Sans KR', sans-serif" font-size="21" font-weight="650" fill="#0B3B8F" text-anchor="middle"><tspan x="1117" dy="0">표 4행</tspan></text><path d="M1260 492 H1278" stroke="#8FA6C7" stroke-width="7" stroke-linecap="round"/><rect x="1282" y="322" width="278" height="342" rx="26" fill="#EAF2FF" stroke="#155EEF" stroke-width="2"/><rect x="1282" y="322" width="278" height="78" rx="26" fill="#155EEF"/><text x="1421" y="373" font-family="Arial, 'Noto Sans KR', sans-serif" font-size="27" font-weight="750" fill="#FFFFFF" text-anchor="middle"><tspan x="1421" dy="0">5 점검·피드백</tspan></text><text x="1421" y="472" font-family="Arial, 'Noto Sans KR', sans-serif" font-size="27" font-weight="750" fill="#172B4D" text-anchor="middle"><tspan x="1421" dy="0">10점 루브릭</tspan></text><rect x="1306" y="562" width="230" height="70" rx="16" fill="#FFFFFF"/><text x="1421" y="605" font-family="Arial, 'Noto Sans KR', sans-serif" font-size="21" font-weight="650" fill="#0B3B8F" text-anchor="middle"><tspan x="1421" dy="0">수정 기록</tspan></text><rect x="98" y="710" width="1404" height="104" rx="20" fill="#0B1F44"/><text x="800" y="752" font-family="Arial, 'Noto Sans KR', sans-serif" font-size="24" font-weight="700" fill="#FFFFFF" text-anchor="middle"><tspan x="800" dy="0">단독 수강 완료: 가상 회의 원문과 AI 요약을 대조한 검증 후속조치표 1부</tspan></text><text x="800" y="790" font-family="Arial, 'Noto Sans KR', sans-serif" font-size="17" font-weight="500" fill="#D8E5FF" text-anchor="middle"><tspan x="800" dy="0">연속 수강 신규성: 마케팅 과정과 달리 회의 원문·결정·후속조치·담당 역할·기한을 판정하며, 광고 카피나 채널 기준을 사용하지 않습니다.</tspan></text></svg>
