<?xml version="1.0" encoding="UTF-8"?>
<svg xmlns="http://www.w3.org/2000/svg" width="1600" height="900" viewBox="0 0 1600 900" role="img" aria-labelledby="title desc">
  <title id="title">수업 시작 전 개인 Notion 학습 시스템 만들기</title><desc id="desc">개인 워크스페이스부터 첫 수업 기록까지 30분에 만드는 다섯 단계</desc>
  <rect width="1600" height="900" fill="#F4F7FB"/><circle cx="1488" cy="25" r="240" fill="#EAF2FF"/><circle cx="50" cy="865" r="180" fill="#F1E9FF"/>
  <rect x="38" y="38" width="1524" height="824" rx="40" fill="#FFFFFF" stroke="#D7E0ED" stroke-width="3"/>
  <rect x="38" y="38" width="1524" height="174" rx="40" fill="#101828"/><rect x="38" y="174" width="1524" height="38" fill="#101828"/>
  <rect x="76" y="72" width="238" height="38" rx="19" fill="#FFFFFF" fill-opacity="0.14"/><text x="195" y="99" text-anchor="middle" font-size="17" font-weight="900" fill="#FFFFFF">BEFORE CLASS · DAY 1</text>
  <text x="76" y="158" font-size="40" font-weight="900" fill="#FFFFFF">30~40분 완성 · 나만의 Notion 수업 정리 시스템</text>
  <rect x="1280" y="83" width="232" height="78" rx="24" fill="#FFFFFF"/><text x="1396" y="113" text-anchor="middle" font-size="17" font-weight="800" fill="#101828">정규 수업과 별도</text><text x="1396" y="145" text-anchor="middle" font-size="24" font-weight="900" fill="#2563EB">첫날 시작 전</text>
  <text x="72" y="250" font-size="18" font-weight="750" fill="#64748B">꾸미기보다 “10초 안에 새 노트 만들기, 20초 안에 지난 프롬프트 찾기”가 완성 기준입니다.</text>
  <g><rect x="72" y="274" width="252" height="294" rx="28" fill="#FFFFFF" stroke="#D7E0ED" stroke-width="3"/><circle cx="198" cy="332" r="34" fill="#2563EB"/><text x="198" y="341" text-anchor="middle" font-size="23" font-weight="900" fill="#FFFFFF">01</text><text x="198" y="411" text-anchor="middle" font-size="26" font-weight="900" fill="#17233B">개인 공간</text><line x1="106" y1="444" x2="290" y2="444" stroke="#E4EAF2" stroke-width="2"/><text x="198" y="489" text-anchor="middle" font-size="18" font-weight="700" fill="#52627A">계정·개인 워크스페이스</text><text x="198" y="526" text-anchor="middle" font-size="15" font-weight="700" fill="#8190A6">저장 후 다음 단계</text></g><path d="M 324 421 H 358" stroke="#A4B2C7" stroke-width="8" stroke-linecap="round"/><path d="M 348 409 L 362 421 L 348 433" fill="none" stroke="#A4B2C7" stroke-width="8" stroke-linecap="round" stroke-linejoin="round"/><g><rect x="372" y="274" width="252" height="294" rx="28" fill="#FFFFFF" stroke="#D7E0ED" stroke-width="3"/><circle cx="498" cy="332" r="34" fill="#2563EB"/><text x="498" y="341" text-anchor="middle" font-size="23" font-weight="900" fill="#FFFFFF">02</text><text x="498" y="411" text-anchor="middle" font-size="26" font-weight="900" fill="#17233B">홈</text><line x1="406" y1="444" x2="590" y2="444" stroke="#E4EAF2" stroke-width="2"/><text x="498" y="489" text-anchor="middle" font-size="18" font-weight="700" fill="#52627A">AX 과정 대시보드</text><text x="498" y="526" text-anchor="middle" font-size="15" font-weight="700" fill="#8190A6">저장 후 다음 단계</text></g><path d="M 624 421 H 658" stroke="#A4B2C7" stroke-width="8" stroke-linecap="round"/><path d="M 648 409 L 662 421 L 648 433" fill="none" stroke="#A4B2C7" stroke-width="8" stroke-linecap="round" stroke-linejoin="round"/><g><rect x="672" y="274" width="252" height="294" rx="28" fill="#FFFFFF" stroke="#D7E0ED" stroke-width="3"/><circle cx="798" cy="332" r="34" fill="#7C3AED"/><text x="798" y="341" text-anchor="middle" font-size="23" font-weight="900" fill="#FFFFFF">03</text><text x="798" y="411" text-anchor="middle" font-size="26" font-weight="900" fill="#17233B">수업 노트</text><line x1="706" y1="444" x2="890" y2="444" stroke="#E4EAF2" stroke-width="2"/><text x="798" y="489" text-anchor="middle" font-size="18" font-weight="700" fill="#52627A">날짜·모듈·이해도</text><text x="798" y="526" text-anchor="middle" font-size="15" font-weight="700" fill="#8190A6">저장 후 다음 단계</text></g><path d="M 924 421 H 958" stroke="#A4B2C7" stroke-width="8" stroke-linecap="round"/><path d="M 948 409 L 962 421 L 948 433" fill="none" stroke="#A4B2C7" stroke-width="8" stroke-linecap="round" stroke-linejoin="round"/><g><rect x="972" y="274" width="252" height="294" rx="28" fill="#FFFFFF" stroke="#D7E0ED" stroke-width="3"/><circle cx="1098" cy="332" r="34" fill="#7C3AED"/><text x="1098" y="341" text-anchor="middle" font-size="23" font-weight="900" fill="#FFFFFF">04</text><text x="1098" y="411" text-anchor="middle" font-size="26" font-weight="900" fill="#17233B">재사용 자산</text><line x1="1006" y1="444" x2="1190" y2="444" stroke="#E4EAF2" stroke-width="2"/><text x="1098" y="489" text-anchor="middle" font-size="18" font-weight="700" fill="#52627A">프롬프트·도구·결과물</text><text x="1098" y="526" text-anchor="middle" font-size="15" font-weight="700" fill="#8190A6">저장 후 다음 단계</text></g><path d="M 1224 421 H 1258" stroke="#A4B2C7" stroke-width="8" stroke-linecap="round"/><path d="M 1248 409 L 1262 421 L 1248 433" fill="none" stroke="#A4B2C7" stroke-width="8" stroke-linecap="round" stroke-linejoin="round"/><g><rect x="1272" y="274" width="252" height="294" rx="28" fill="#FFFFFF" stroke="#D7E0ED" stroke-width="3"/><circle cx="1398" cy="332" r="34" fill="#0F766E"/><text x="1398" y="341" text-anchor="middle" font-size="23" font-weight="900" fill="#FFFFFF">05</text><text x="1398" y="411" text-anchor="middle" font-size="26" font-weight="900" fill="#17233B">첫 기록</text><line x1="1306" y1="444" x2="1490" y2="444" stroke="#E4EAF2" stroke-width="2"/><text x="1398" y="489" text-anchor="middle" font-size="18" font-weight="700" fill="#52627A">핵심·시도·오류·링크</text><text x="1398" y="526" text-anchor="middle" font-size="15" font-weight="700" fill="#8190A6">저장 후 다음 단계</text></g>
  <rect x="72" y="620" width="1456" height="168" rx="30" fill="#F7F8FC" stroke="#D7E0ED" stroke-width="2"/>
  <text x="106" y="669" font-size="20" font-weight="900" fill="#102A56">수업이 시작되면 이렇게 기록합니다</text>
  <g font-size="18" font-weight="720" fill="#334155"><text x="106" y="715">① 오늘의 한 줄 핵심</text><text x="400" y="715">② 다시 쓸 최종 프롬프트</text><text x="772" y="715">③ 막힌 점과 해결</text><text x="1072" y="715">④ 결과 링크와 다음 행동</text></g>
  <rect x="106" y="744" width="854" height="30" rx="15" fill="#EAF2FF"/><text x="533" y="765" text-anchor="middle" font-size="16" font-weight="850" fill="#102A56">Notion은 지도 · Google Drive는 원본 파일 창고</text>
  <rect x="986" y="744" width="508" height="30" rx="15" fill="#ECFDF3"/><text x="1240" y="765" text-anchor="middle" font-size="16" font-weight="850" fill="#0F766E">원본 교재 3종은 전체 과정 종료 후 제공</text>
  <text x="1518" y="838" text-anchor="end" font-size="13" font-weight="700" fill="#7A879B">교육용 구조 안내 · 실제 Notion 화면과 다를 수 있음 · 2026-08-08</text>
</svg>